<svg width="40" height="13" viewBox="0 0 40 13" fill="none" xmlns="http://www.w3.org/2000/svg">
<path d="M11.322 4.63C11.322 5.434 11.136 6.166 10.764 6.826C10.392 7.474 9.84 7.99 9.108 8.374C8.388 8.758 7.512 8.95 6.48 8.95H4.896V13H0.9V0.256H6.48C8.04 0.256 9.234 0.652 10.062 1.444C10.902 2.236 11.322 3.298 11.322 4.63ZM6.03 5.8C6.858 5.8 7.272 5.41 7.272 4.63C7.272 3.85 6.858 3.46 6.03 3.46H4.896V5.8H6.03ZM20.7615 11.074H16.5135L15.8835 13H11.6895L16.3515 0.256H20.9595L25.6035 13H21.3915L20.7615 11.074ZM19.7895 8.068L18.6375 4.522L17.4855 8.068H19.7895ZM30.5073 9.976H34.3593V13H26.5113V0.256H30.5073V9.976ZM39.6128 0.256V13H35.6168V0.256H39.6128Z" fill="#3B4664"/>
</svg>
