<svg width="200" height="135" viewBox="0 0 200 135" fill="none" xmlns="http://www.w3.org/2000/svg">
<path d="M94.6304 51.251C91.8704 51.0364 89.5867 53.3346 89.8304 56.0946C89.9904 57.9237 91.3176 59.4692 93.0776 59.9855C94.0631 60.2728 94.9831 60.1819 95.8013 59.8801V68.3128L98.7358 65.3783C98.7358 65.3783 98.7358 59.2473 98.7358 55.811C98.7358 53.4691 96.9685 51.4328 94.6304 51.251Z" fill="#001D4A"/>
<path d="M108.035 41.2764H117.275V72.6036C112.17 72.6036 108.035 68.4655 108.035 63.3636V41.2764Z" fill="#EA7317"/>
<path d="M131.218 54.2654H121.979V72.6036H131.218V54.2654Z" fill="#EA7317"/>
<path d="M126.6 50.52C129.153 50.52 131.222 48.4507 131.222 45.8982C131.222 43.3456 129.153 41.2764 126.6 41.2764C124.048 41.2764 121.979 43.3456 121.979 45.8982C121.979 48.4507 124.048 50.52 126.6 50.52Z" fill="#001D4A"/>
<path d="M77.4137 56.8909C77.4137 49.7564 82.2028 43.7455 88.7373 41.88C87.3737 41.4909 85.9337 41.28 84.4428 41.28H68.7773V65.5855V72.5891V84.5891C68.7773 89.3819 72.6646 93.2691 77.4573 93.2691H79.1083V72.6073H84.4428C85.0137 72.6073 85.581 72.5746 86.1374 72.5128C87.0937 72.411 88.021 72.2219 88.9192 71.9528C82.2901 70.1491 77.4137 64.091 77.4137 56.8909Z" fill="#EA7317"/>
</svg>
