<svg width="200" height="135" viewBox="0 0 200 135" fill="none" xmlns="http://www.w3.org/2000/svg">
<path d="M94.6304 51.2507C91.8704 51.0362 89.5867 53.3344 89.8304 56.0944C89.9904 57.9235 91.3176 59.4689 93.0776 59.9853C94.0631 60.2726 94.9831 60.1817 95.8013 59.8798V68.3126L98.7358 65.378C98.7358 65.378 98.7358 59.2471 98.7358 55.8107C98.7358 53.4689 96.9685 51.4325 94.6304 51.2507Z" fill="#001D4A"/>
<path d="M108.035 41.2764H117.275V72.6036C112.17 72.6036 108.035 68.4655 108.035 63.3636V41.2764Z" fill="white"/>
<path d="M131.218 54.2656H121.979V72.6038H131.218V54.2656Z" fill="white"/>
<path d="M126.6 50.52C129.153 50.52 131.222 48.4507 131.222 45.8982C131.222 43.3456 129.153 41.2764 126.6 41.2764C124.048 41.2764 121.979 43.3456 121.979 45.8982C121.979 48.4507 124.048 50.52 126.6 50.52Z" fill="#001D4A"/>
<path d="M77.4137 56.8907C77.4137 49.7562 82.2028 43.7452 88.7373 41.8798C87.3737 41.4907 85.9337 41.2798 84.4428 41.2798H68.7773V65.5853V72.5889V84.5889C68.7773 89.3816 72.6646 93.2689 77.4573 93.2689H79.1083V72.6071H84.4428C85.0137 72.6071 85.581 72.5744 86.1374 72.5125C87.0937 72.4107 88.021 72.2216 88.9192 71.9525C82.2901 70.1489 77.4137 64.0907 77.4137 56.8907Z" fill="white"/>
</svg>
