<svg width="64" height="53" viewBox="0 0 64 53" fill="none" xmlns="http://www.w3.org/2000/svg">
<path d="M26.6304 10.251C23.8704 10.0364 21.5867 12.3346 21.8304 15.0946C21.9904 16.9237 23.3176 18.4692 25.0776 18.9855C26.0631 19.2728 26.9831 19.1819 27.8013 18.8801V27.3128L30.7358 24.3783C30.7358 24.3783 30.7358 18.2473 30.7358 14.811C30.7358 12.4691 28.9685 10.4328 26.6304 10.251Z" fill="#001D4A"/>
<path d="M40.0352 0.276367H49.275V31.6036C44.1696 31.6036 40.0352 27.4655 40.0352 22.3636V0.276367Z" fill="#EA7317"/>
<path d="M63.2185 13.2654H53.9785V31.6036H63.2185V13.2654Z" fill="#EA7317"/>
<path d="M58.6003 9.52C61.1529 9.52 63.2221 7.45074 63.2221 4.89818C63.2221 2.34562 61.1529 0.276367 58.6003 0.276367C56.0478 0.276367 53.9785 2.34562 53.9785 4.89818C53.9785 7.45074 56.0478 9.52 58.6003 9.52Z" fill="#001D4A"/>
<path d="M9.41371 15.8909C9.41371 8.7564 14.2028 2.74549 20.7373 0.88003C19.3737 0.490939 17.9337 0.280029 16.4428 0.280029H0.777344V24.5855V31.5891V43.5891C0.777344 48.3819 4.66462 52.2691 9.45734 52.2691H11.1083V31.6073H16.4428C17.0137 31.6073 17.581 31.5746 18.1374 31.5128C19.0937 31.411 20.021 31.2219 20.9192 30.9528C14.2901 29.1491 9.41371 23.091 9.41371 15.8909Z" fill="#EA7317"/>
</svg>
