<svg width="16" height="14" viewBox="0 0 16 14" fill="none" xmlns="http://www.w3.org/2000/svg">
<path d="M7.46666 2.73343H16M7.46666 11.2668H16M1.59999 0.600098H3.73333C4.32243 0.600098 4.79999 1.07766 4.79999 1.66676V3.8001C4.79999 4.3892 4.32243 4.86676 3.73333 4.86676H1.59999C1.01089 4.86676 0.533325 4.3892 0.533325 3.8001V1.66676C0.533325 1.07766 1.01089 0.600098 1.59999 0.600098ZM1.59999 9.13343H3.73333C4.32243 9.13343 4.79999 9.61099 4.79999 10.2001V12.3334C4.79999 12.9225 4.32243 13.4001 3.73333 13.4001H1.59999C1.01089 13.4001 0.533325 12.9225 0.533325 12.3334V10.2001C0.533325 9.61099 1.01089 9.13343 1.59999 9.13343Z" stroke="#3B4664"/>
</svg>
