<svg width="20" height="16" viewBox="0 0 20 16" fill="none" xmlns="http://www.w3.org/2000/svg">
<path d="M17.5 0.5H2.50004C2.05801 0.5 1.63409 0.675595 1.32153 0.988155C1.00897 1.30072 0.833374 1.72464 0.833374 2.16667V4.66667H2.50004V2.16667H17.5V13.8333H11.6667V15.5H17.5C17.9421 15.5 18.366 15.3244 18.6786 15.0118C18.9911 14.6993 19.1667 14.2754 19.1667 13.8333V2.16667C19.1667 1.72464 18.9911 1.30072 18.6786 0.988155C18.366 0.675595 17.9421 0.5 17.5 0.5ZM0.833374 13V15.5H3.33337C3.33337 14.837 3.06998 14.2011 2.60114 13.7322C2.1323 13.2634 1.49642 13 0.833374 13ZM0.833374 9.66667V11.3333C1.38055 11.3333 1.92236 11.4411 2.42789 11.6505C2.93341 11.8599 3.39274 12.1668 3.77965 12.5537C4.16656 12.9406 4.47348 13.4 4.68287 13.9055C4.89227 14.411 5.00004 14.9528 5.00004 15.5H6.66671C6.66671 13.9529 6.05213 12.4692 4.95816 11.3752C3.8642 10.2812 2.38047 9.66667 0.833374 9.66667ZM0.833374 6.33333V8C1.81829 8 2.79356 8.19399 3.7035 8.5709C4.61344 8.94781 5.44024 9.50026 6.13667 10.1967C6.83311 10.8931 7.38556 11.7199 7.76247 12.6299C8.13938 13.5398 8.33337 14.5151 8.33337 15.5H10C10 10.4333 5.89171 6.33333 0.833374 6.33333ZM9.16671 7.24167V8.90833L12.0834 10.5L15 8.90833V7.24167L12.0834 8.83333L9.16671 7.24167ZM12.0834 3L7.50004 5.5L12.0834 8L16.6667 5.5L12.0834 3Z" fill="#2D40DC"/>
</svg>
