<svg width="16" height="4" viewBox="0 0 16 4" fill="none" xmlns="http://www.w3.org/2000/svg">
<path d="M2.00002 1.99992C2.00002 2.36811 1.70154 2.66659 1.33335 2.66659C0.965164 2.66659 0.666687 2.36811 0.666687 1.99992C0.666687 1.63173 0.965164 1.33325 1.33335 1.33325C1.70154 1.33325 2.00002 1.63173 2.00002 1.99992Z" stroke="#001D4A"/>
<path d="M8.66669 1.99992C8.66669 2.36811 8.36821 2.66659 8.00002 2.66659C7.63183 2.66659 7.33335 2.36811 7.33335 1.99992C7.33335 1.63173 7.63183 1.33325 8.00002 1.33325C8.36821 1.33325 8.66669 1.63173 8.66669 1.99992Z" stroke="#001D4A"/>
<path d="M15.3334 1.99992C15.3334 2.36811 15.0349 2.66659 14.6667 2.66659C14.2985 2.66659 14 2.36811 14 1.99992C14 1.63173 14.2985 1.33325 14.6667 1.33325C15.0349 1.33325 15.3334 1.63173 15.3334 1.99992Z" stroke="#001D4A"/>
</svg>
