<svg width="14" height="16" viewBox="0 0 14 16" fill="none" xmlns="http://www.w3.org/2000/svg">
<path d="M4.86628 10.6665V9.06654M4.86628 9.06654V3.7332C4.86628 3.1441 5.34384 2.66654 5.93294 2.66654C6.52205 2.66654 6.99961 3.1441 6.99961 3.7332V7.99987H10.5761C11.5464 7.99987 12.3329 8.78644 12.3329 9.75673V10.6665C12.3329 13.3175 10.1839 15.4665 7.53294 15.4665H6.99961C4.64319 15.4665 2.73294 13.5563 2.73294 11.1999C2.73294 10.0217 3.68807 9.06654 4.86628 9.06654ZM8.59961 5.86654H10.7329C12.2057 5.86654 13.3996 4.67263 13.3996 3.19987C13.3996 1.72711 12.2057 0.533203 10.7329 0.533203H3.26628C1.79352 0.533203 0.599609 1.72711 0.599609 3.19987C0.599609 4.67263 1.79352 5.86654 3.26628 5.86654" stroke="white"/>
</svg>
