<svg width="13" height="15" viewBox="0 0 13 15" fill="none" xmlns="http://www.w3.org/2000/svg">
<path d="M4.5 10V8.5M4.5 8.5V3.5C4.5 2.94772 4.94772 2.5 5.5 2.5C6.05228 2.5 6.5 2.94772 6.5 3.5V7.5H9.85294C10.7626 7.5 11.5 8.23741 11.5 9.14706V10C11.5 12.4853 9.48528 14.5 7 14.5H6.5C4.29086 14.5 2.5 12.7091 2.5 10.5C2.5 9.39543 3.39543 8.5 4.5 8.5ZM8 5.5H10C11.3807 5.5 12.5 4.38071 12.5 3C12.5 1.61929 11.3807 0.5 10 0.5H3C1.61929 0.5 0.5 1.61929 0.5 3C0.5 4.38071 1.61929 5.5 3 5.5" stroke="#3B4664"/>
</svg>
